<?xml version="1.0" encoding="UTF-8" standalone="no"?>
<svg
   xmlns:dc="http://purl.org/dc/elements/1.1/"
   xmlns:cc="http://creativecommons.org/ns#"
   xmlns:rdf="http://www.w3.org/1999/02/22-rdf-syntax-ns#"
   xmlns:svg="http://www.w3.org/2000/svg"
   xmlns="http://www.w3.org/2000/svg"
   xmlns:sodipodi="http://sodipodi.sourceforge.net/DTD/sodipodi-0.dtd"
   xmlns:inkscape="http://www.inkscape.org/namespaces/inkscape"
   width="54"
   height="54"
   version="1.1"
   viewBox="0 0 14.2875 14.2875"
   id="svg1157"
   sodipodi:docname="punch.svg"
   inkscape:version="1.0.1 (3bc2e813f5, 2020-09-07)">
  <defs
     id="defs1161" />
  <sodipodi:namedview
     pagecolor="#ffffff"
     bordercolor="#666666"
     borderopacity="1"
     objecttolerance="10"
     gridtolerance="10"
     guidetolerance="10"
     inkscape:pageopacity="0"
     inkscape:pageshadow="2"
     inkscape:window-width="1920"
     inkscape:window-height="1080"
     id="namedview1159"
     showgrid="false"
     inkscape:zoom="9.0923538"
     inkscape:cx="16.310332"
     inkscape:cy="31.660506"
     inkscape:window-x="0"
     inkscape:window-y="0"
     inkscape:window-maximized="1"
     inkscape:current-layer="svg1157"
     units="px" />
  <metadata
     id="metadata1131">
    <rdf:RDF>
      <cc:Work
         rdf:about="">
        <dc:format>image/svg+xml</dc:format>
        <dc:type
           rdf:resource="http://purl.org/dc/dcmitype/StillImage" />
        <dc:title></dc:title>
      </cc:Work>
    </rdf:RDF>
  </metadata>
  <g
     transform="matrix(0.40394723,0,0,0.40394723,-55.162286,-76.423921)"
     id="g1143">
    <path
       d="m 169.1,217.04 c 0,0 -14.465,10.088 -21.45,6.0277 -6.985,-4.0603 -10.385,-21.961 -6.8532,-28.269 3.5316,-6.3085 10.817,-5.3205 12.843,-4.3903 2.0262,0.93024 2.3805,2.7535 2.3805,2.7535 0,0 1.8749,-2.3993 4.8148,-0.44059 2.94,1.9587 1.2137,10.549 1.2137,10.549 l 5.3878,-0.4596 z"
       id="path1135" />
    <path
       d="m 167.35,215.61 c 0,0 -13.096,8.9814 -19.26,5.3984 -6.164,-3.583 -9.1641,-19.379 -6.0476,-24.946 3.1165,-5.567 12.001,-3.8743 12.001,-3.8743 0,0 1.355,3.1915 1.6634,2.9315 0.55569,-0.46853 1.0128,-1.1416 2.4654,-1.1416 1.4526,0 1.7025,0.4865 2.4857,1.5647 0.78323,1.0782 -0.0945,8.9297 -0.0945,8.9297 l 5.0857,-0.4847 z"
       fill="#cc3c3c"
       id="path1137" />
    <path
       transform="matrix(0.26458,0,0,0.26458,-2.0603,122.75)"
       d="m 605.61,269.21 c -5.2713,0 -7.074,2.3335 -9.0684,4.0879 0.55071,4.0724 1.5594,10.55 2.0703,16.539 0.51931,6.0906 0.51464,11.565 0.29883,15.188 -0.21562,3.6222 -0.64162,5.3625 -1.2852,7.2812 -0.64354,1.9187 -1.5058,4.0214 -1.1016,4.1582 0.40418,0.13666 2.0728,-1.6882 3.0293,-2.7676 0.95648,-1.0794 1.201,-1.4139 1.7012,-2.2852 2.2206,-5.0418 2.3265,-8.4273 2.3047,-12.967 -0.0348,-7.2556 -0.11259,-18.079 1.4504,-22.942 1.563,-4.8634 3.0657,-4.7926 5.3172,-5.435 -1.1447,-0.57657 -2.5872,-0.85742 -4.7168,-0.85742 z m 33.6,74.328 c 0,0 -8.119,4.2418 -12.527,6.4023 -9.6866,4.7474 -22.224,8.1763 -33.154,9.5586 -10.931,1.3822 -20.639,0.80989 -28.023,-1.5527 -7.3848,-2.3626 -12.437,-8.5119 -16.357,-12.584 -0.37425,-0.38869 -0.72814,-0.77698 -1.082,-1.1641 4.7367,12.247 11.368,22.484 19.439,27.176 23.296,13.542 72.793,-20.402 72.793,-20.402 z"
       fill="#a21d1d"
       id="path1139" />
    <path
       d="m 153.83,191.87 c 0,0 1.2768,0.3781 2.2044,2.5513 0.9276,2.1732 1.7855,8.4601 1.0175,10.758 -0.768,2.2979 -4.3507,2.8887 -4.3507,2.8887 0,0 2.6643,-0.6094 3.0659,-2.7794 0.4016,-2.17 0.2297,-8.0347 -0.7087,-10.3 -0.9384,-2.2653 -2.8821,-3.3073 -2.8821,-3.3073 z"
       id="path1141" />
  </g>
</svg>
