<?xml version="1.0" encoding="UTF-8" standalone="no"?>
<svg
   height="16"
   viewBox="0 0 16 16"
   width="16"
   version="1.1"
   id="svg1"
   sodipodi:docname="Contact.svg"
   inkscape:version="1.3-beta (cedbd6c6ff, 2023-05-28)"
   xmlns:inkscape="http://www.inkscape.org/namespaces/inkscape"
   xmlns:sodipodi="http://sodipodi.sourceforge.net/DTD/sodipodi-0.dtd"
   xmlns="http://www.w3.org/2000/svg"
   xmlns:svg="http://www.w3.org/2000/svg">
  <defs
     id="defs1">
    <inkscape:path-effect
       effect="fillet_chamfer"
       id="path-effect3"
       is_visible="true"
       lpeversion="1"
       nodesatellites_param="F,0,0,1,0,0.4,0,1 @ F,0,0,1,0,0.4,0,1 @ F,0,0,1,0,0.4,0,1"
       radius="0.4"
       unit="px"
       method="auto"
       mode="F"
       chamfer_steps="1"
       flexible="false"
       use_knot_distance="true"
       apply_no_radius="true"
       apply_with_radius="true"
       only_selected="false"
       hide_knots="false" />
  </defs>
  <sodipodi:namedview
     id="namedview1"
     pagecolor="#505050"
     bordercolor="#eeeeee"
     borderopacity="1"
     inkscape:showpageshadow="0"
     inkscape:pageopacity="0"
     inkscape:pagecheckerboard="0"
     inkscape:deskcolor="#d1d1d1"
     inkscape:zoom="35.311145"
     inkscape:cx="-3.1010039"
     inkscape:cy="8.3259832"
     inkscape:window-width="1920"
     inkscape:window-height="1001"
     inkscape:window-x="2391"
     inkscape:window-y="-9"
     inkscape:window-maximized="1"
     inkscape:current-layer="svg1" />
  <path
     id="rect1"
     style="fill:#ffe345;fill-opacity:1;stroke-width:3.13268"
     d="M 4.9257812 1 C 2.7512766 1 1 2.7512766 1 4.9257812 L 1 8.0742188 C 1 10.248724 2.7512766 12 4.9257812 12 L 7.4765625 12 L 12.771484 15.056641 L 12.771484 11.617188 C 14.091841 10.986431 15 9.6402437 15 8.0742188 L 15 4.9257812 C 15 2.7512766 13.248724 1 11.074219 1 L 4.9257812 1 z M 8 2.5839844 C 8.2769994 2.5839844 8.5 2.8255732 8.5 3.125 L 8.5 5.8730469 L 10.199219 5.8730469 A 0.38497455 0.23094011 0 0 1 10.533203 6.2207031 L 8.3339844 8.5058594 A 0.38497455 0.23094011 0 0 1 7.6660156 8.5058594 L 5.4667969 6.2207031 A 0.38497455 0.23094011 0 0 1 5.8007812 5.8730469 L 7.5 5.8730469 L 7.5 3.125 C 7.5 2.8255732 7.7230006 2.5839844 8 2.5839844 z M 5 9.1152344 L 11 9.1152344 C 11.277 9.1152344 11.5 9.338235 11.5 9.6152344 C 11.5 9.8922338 11.277 10.115234 11 10.115234 L 5 10.115234 C 4.7230006 10.115234 4.5 9.8922338 4.5 9.6152344 C 4.5 9.338235 4.7230006 9.1152344 5 9.1152344 z " />
</svg>
