<?xml version="1.0" encoding="UTF-8" standalone="no"?>
<svg
   height="16"
   viewBox="0 0 16 16"
   width="16"
   version="1.1"
   id="svg1"
   sodipodi:docname="Gamepiece.svg"
   inkscape:version="1.3-beta (cedbd6c6ff, 2023-05-28)"
   xmlns:inkscape="http://www.inkscape.org/namespaces/inkscape"
   xmlns:sodipodi="http://sodipodi.sourceforge.net/DTD/sodipodi-0.dtd"
   xmlns="http://www.w3.org/2000/svg"
   xmlns:svg="http://www.w3.org/2000/svg">
  <defs
     id="defs1">
    <inkscape:path-effect
       effect="fillet_chamfer"
       id="path-effect5"
       is_visible="true"
       lpeversion="1"
       nodesatellites_param="F,0,0,1,0,0.5,0,1 @ F,0,0,1,0,0.5,0,1 @ F,0,0,1,0,0.5,0,1 @ F,0,0,1,0,0.5,0,1"
       radius="0.75"
       unit="px"
       method="auto"
       mode="F"
       chamfer_steps="1"
       flexible="false"
       use_knot_distance="true"
       apply_no_radius="true"
       apply_with_radius="true"
       only_selected="false"
       hide_knots="false" />
  </defs>
  <sodipodi:namedview
     id="namedview1"
     pagecolor="#505050"
     bordercolor="#eeeeee"
     borderopacity="1"
     inkscape:showpageshadow="0"
     inkscape:pageopacity="0"
     inkscape:pagecheckerboard="0"
     inkscape:deskcolor="#d1d1d1"
     inkscape:zoom="32"
     inkscape:cx="0.546875"
     inkscape:cy="8.625"
     inkscape:window-width="2400"
     inkscape:window-height="1271"
     inkscape:window-x="-9"
     inkscape:window-y="-9"
     inkscape:window-maximized="1"
     inkscape:current-layer="svg1" />
  <path
     id="path5"
     style="fill:#8da5f3;fill-opacity:1;stroke:none;stroke-width:0.205505;stroke-dasharray:none;stroke-opacity:1"
     d="M 8.0003684,1 A 2.5688073,2.5688073 0 0 0 5.4315604,3.5688073 2.5688073,2.5688073 0 0 0 8.0003684,6.1376147 2.5688073,2.5688073 0 0 0 10.569175,3.5688073 2.5688073,2.5688073 0 0 0 8.0003684,1 Z M 6.7159644,6.7798165 A 1.1283588,1.1283588 0 0 0 5.5921114,7.8033257 L 5.0141294,13.976491 A 0.93569827,0.93569827 0 0 0 5.9453224,15 h 4.1100906 a 0.93569827,0.93569827 0 0 0 0.931193,-1.023509 L 10.408624,7.8033257 A 1.1283588,1.1283588 0 0 0 9.2847714,6.7798165 Z" />
</svg>
