<?xml version="1.0" encoding="UTF-8" standalone="no"?>
<svg
   version="1.1"
   id="svg2"
   sodipodi:docname="vector_whiteIcons.svg"
   width="16"
   height="16"
   inkscape:version="1.3-beta (cedbd6c6ff, 2023-05-28)"
   xmlns:inkscape="http://www.inkscape.org/namespaces/inkscape"
   xmlns:sodipodi="http://sodipodi.sourceforge.net/DTD/sodipodi-0.dtd"
   xmlns="http://www.w3.org/2000/svg"
   xmlns:svg="http://www.w3.org/2000/svg">
  <sodipodi:namedview
     id="namedview2"
     pagecolor="#505050"
     bordercolor="#eeeeee"
     borderopacity="1"
     inkscape:showpageshadow="0"
     inkscape:pageopacity="0"
     inkscape:pagecheckerboard="0"
     inkscape:deskcolor="#d1d1d1"
     inkscape:zoom="34.533333"
     inkscape:cx="10.815637"
     inkscape:cy="8.8899614"
     inkscape:window-width="1920"
     inkscape:window-height="1001"
     inkscape:window-x="-9"
     inkscape:window-y="-9"
     inkscape:window-maximized="1"
     inkscape:current-layer="svg2" />
  <defs
     id="defs1" />
  <path
     id="path2"
     style="display:inline;stroke-width:0.35;fill:#ffffff;fill-opacity:1"
     d="M 1.7,4.5 C 1.501667,4.5 1.332773,4.569864 1.192773,4.7098632 1.06444,4.8498631 1,5.0194402 1,5.2177733 V 10.8 c 0,0.198333 0.06444,0.36791 0.192773,0.50791 C 1.332773,11.436243 1.501667,11.5 1.7,11.5 h 12.6 c 0.186667,0 0.350137,-0.06376 0.490136,-0.19209 C 14.930136,11.16791 15,10.998333 15,10.8 V 5.2 C 15,5.0133334 14.930136,4.8498631 14.790136,4.7098632 14.650137,4.5698635 14.486667,4.5 14.3,4.5 Z m 1.75,1.4 h 1.4 V 7.2829102 H 6.23291 V 8.68291 H 4.85 v 1.4 h -1.4 v -1.4 H 2.05 V 7.2829102 h 1.4 z m 7.35,1.4 c 0.186667,0 0.350137,0.069863 0.490136,0.2098631 C 11.430136,7.6498632 11.5,7.8133335 11.5,8 11.5,8.198333 11.43014,8.361803 11.290136,8.490137 11.150137,8.630136 10.986667,8.7 10.8,8.7 10.601667,8.7 10.432773,8.630136 10.292773,8.490137 10.16444,8.361803 10.1,8.198333 10.1,8 10.1,7.8133335 10.16444,7.6498632 10.292773,7.5098631 10.432773,7.3698635 10.601667,7.3 10.8,7.3 Z m 2.45,0 c 0.186667,0 0.350137,0.069863 0.490136,0.2098631 C 13.880136,7.6498632 13.95,7.8133335 13.95,8 13.95,8.198333 13.88014,8.361803 13.740136,8.490137 13.600137,8.630136 13.436667,8.7 13.25,8.7 13.051667,8.7 12.882773,8.630136 12.742773,8.490137 12.61444,8.361803 12.55,8.198333 12.55,8 12.55,7.8133335 12.61444,7.6498632 12.742773,7.5098631 12.882773,7.3698635 13.051667,7.3 13.25,7.3 Z" />
</svg>
