<?xml version="1.0" encoding="UTF-8" standalone="no"?>
<svg
   height="16"
   viewBox="0 0 16 16"
   width="16"
   version="1.1"
   id="svg1"
   sodipodi:docname="Popup.svg"
   inkscape:version="1.3-beta (cedbd6c6ff, 2023-05-28)"
   xmlns:inkscape="http://www.inkscape.org/namespaces/inkscape"
   xmlns:sodipodi="http://sodipodi.sourceforge.net/DTD/sodipodi-0.dtd"
   xmlns="http://www.w3.org/2000/svg"
   xmlns:svg="http://www.w3.org/2000/svg">
  <defs
     id="defs1">
    <inkscape:path-effect
       effect="fillet_chamfer"
       id="path-effect3"
       is_visible="true"
       lpeversion="1"
       nodesatellites_param="F,0,0,1,0,0.4,0,1 @ F,0,0,1,0,0.4,0,1 @ F,0,0,1,0,0.4,0,1"
       radius="0.4"
       unit="px"
       method="auto"
       mode="F"
       chamfer_steps="1"
       flexible="false"
       use_knot_distance="true"
       apply_no_radius="true"
       apply_with_radius="true"
       only_selected="false"
       hide_knots="false" />
  </defs>
  <sodipodi:namedview
     id="namedview1"
     pagecolor="#505050"
     bordercolor="#eeeeee"
     borderopacity="1"
     inkscape:showpageshadow="0"
     inkscape:pageopacity="0"
     inkscape:pagecheckerboard="0"
     inkscape:deskcolor="#d1d1d1"
     inkscape:zoom="12.484375"
     inkscape:cx="-13.256571"
     inkscape:cy="9.3717146"
     inkscape:window-width="1920"
     inkscape:window-height="1001"
     inkscape:window-x="2391"
     inkscape:window-y="-9"
     inkscape:window-maximized="1"
     inkscape:current-layer="svg1" />
  <path
     id="path1"
     style="fill:#8da5f3;stroke-width:0.159009;fill-opacity:1"
     d="M 8 1 A 7 7 0 0 0 1 8 A 7 7 0 0 0 8 15 A 7 7 0 0 0 15 8 A 7 7 0 0 0 8 1 z M 8 2 A 6 6 0 0 1 14 8 A 6 6 0 0 1 8 14 A 6 6 0 0 1 2 8 A 6 6 0 0 1 8 2 z " />
  <path
     id="path5"
     style="fill:#8da5f3;fill-opacity:1;stroke:none;stroke-width:0.116697;stroke-dasharray:none;stroke-opacity:1"
     d="M 7.9999996,12.5 A 1.288541,1.6513762 0 0 0 9.2885421,10.848624 1.288541,1.6513762 0 0 0 7.9999996,9.1972476 1.288541,1.6513762 0 0 0 6.7114594,10.848624 1.288541,1.6513762 0 0 0 7.9999996,12.5 Z M 8.6442707,8.7844035 A 0.56599677,0.72537353 0 0 0 9.2080071,8.1264333 L 9.4979286,4.1579702 A 0.4693562,0.60152033 0 0 0 9.0308327,3.5 H 6.9691674 a 0.4693562,0.60152033 0 0 0 -0.467096,0.6579702 l 0.289922,3.9684631 a 0.56599677,0.72537353 0 0 0 0.563736,0.6579702 z" />
</svg>
