<?xml version="1.0" encoding="UTF-8" standalone="no"?>
<svg
   xmlns:dc="http://purl.org/dc/elements/1.1/"
   xmlns:cc="http://creativecommons.org/ns#"
   xmlns:rdf="http://www.w3.org/1999/02/22-rdf-syntax-ns#"
   xmlns:svg="http://www.w3.org/2000/svg"
   xmlns="http://www.w3.org/2000/svg"
   xmlns:sodipodi="http://sodipodi.sourceforge.net/DTD/sodipodi-0.dtd"
   xmlns:inkscape="http://www.inkscape.org/namespaces/inkscape"
   width="12"
   height="12"
   viewBox="0 0 12 12"
   version="1.1"
   id="svg8"
   sodipodi:docname="Actor.svg"
   inkscape:version="0.92.3 (2405546, 2018-03-11)">
  <sodipodi:namedview
     pagecolor="#ffffff"
     bordercolor="#666666"
     borderopacity="1"
     objecttolerance="10"
     gridtolerance="10"
     guidetolerance="10"
     inkscape:pageopacity="0"
     inkscape:pageshadow="2"
     inkscape:window-width="1920"
     inkscape:window-height="1043"
     id="namedview9"
     showgrid="false"
     inkscape:zoom="19.666667"
     inkscape:cx="8.6949153"
     inkscape:cy="4.8813559"
     inkscape:window-x="1920"
     inkscape:window-y="0"
     inkscape:window-maximized="1"
     inkscape:current-layer="svg8" />
  <defs
     id="defs2" />
  <metadata
     id="metadata5">
    <rdf:RDF>
      <cc:Work
         rdf:about="">
        <dc:format>image/svg+xml</dc:format>
        <dc:type
           rdf:resource="http://purl.org/dc/dcmitype/StillImage" />
        <dc:title />
      </cc:Work>
    </rdf:RDF>
  </metadata>
  <g
     style="fill:#a5b7f3;fill-opacity:1;stroke:none"
     id="layer1"
     transform="translate(0,-1068)">
    <g
       style="fill:#a5b7f3;fill-opacity:1;stroke:none"
       id="g88905"
       transform="translate(-369.44727,529.80273)">
      <path
         style="fill:#a5b7f3;stroke:none;fill-opacity:1"
         d="m 6,1068 a 6,6 0 0 0 -6,6 6,6 0 0 0 0.01757813,0.3594 A 6,6 0 0 0 6,1080 6,6 0 0 0 10.597656,1077.8457 6,6 0 0 0 12,1074 6,6 0 0 0 11.017578,1070.7207 6,6 0 0 0 6,1068 Z m 0,2 a 4,4 0 0 1 2.2851562,0.7207 A 4,4 0 0 1 10,1074 4,4 0 0 1 7.09375,1077.8457 4,4 0 0 1 6,1078 4,4 0 0 1 2.0195312,1074.3594 4,4 0 0 1 2,1074 a 4,4 0 0 1 4,-4 z"
         transform="translate(369.44727,-529.80273)"
         id="path88899" />
      <path
         id="path88952"
         d="m 375.44745,540.74648 a 3.4507951,3.4507951 0 0 0 -3.4508,3.45081 3.4507951,3.4507951 0 0 0 0.009,0.2067 3.4507951,3.4507951 0 0 0 3.4407,3.24411 3.4507951,3.4507951 0 0 0 2.64426,-1.23902 3.4507951,3.4507951 0 0 0 0.80652,-2.21179 3.4507951,3.4507951 0 0 0 -0.56502,-1.88603 3.4507951,3.4507951 0 0 0 -2.88576,-1.56478 z m 0,1.15028 a 2.30053,2.30053 0 0 1 1.31425,0.4145 2.30053,2.30053 0 0 1 0.98625,1.88603 2.30053,2.30053 0 0 1 -1.67146,2.21179 2.30053,2.30053 0 0 1 -0.62904,0.0887 2.30053,2.30053 0 0 1 -2.28932,-2.09384 2.30053,2.30053 0 0 1 -0.0117,-0.20669 2.30053,2.30053 0 0 1 2.30053,-2.30054 z"
         style="fill:#a5b7f3;stroke:none;stroke-width:1;fill-opacity:1" />
    </g>
  </g>
</svg>
