<?xml version="1.0" encoding="UTF-8" standalone="no"?>
<svg
   xmlns:dc="http://purl.org/dc/elements/1.1/"
   xmlns:cc="http://creativecommons.org/ns#"
   xmlns:rdf="http://www.w3.org/1999/02/22-rdf-syntax-ns#"
   xmlns:svg="http://www.w3.org/2000/svg"
   xmlns="http://www.w3.org/2000/svg"
   width="15"
   height="15"
   viewBox="0 0 15 15"
   version="1.1"
   id="svg8">
  <defs
     id="defs2" />
  <metadata
     id="metadata5">
    <rdf:RDF>
      <cc:Work
         rdf:about="">
        <dc:format>image/svg+xml</dc:format>
        <dc:type
           rdf:resource="http://purl.org/dc/dcmitype/StillImage" />
        <dc:title></dc:title>
      </cc:Work>
    </rdf:RDF>
  </metadata>
  <g
     style="fill:#e3f2fd;fill-opacity:1"
     id="layer1"
     transform="translate(0.9998823,-1066.4998)">
    <g
       style="fill:#e3f2fd;fill-opacity:1"
       id="g88905"
       transform="translate(-369.44727,529.80273)">
      <path
         id="path88899"
         d="m 376.54102,549.54277 a 4,4 0 0 1 -1.09375,0.1543 4,4 0 0 1 -3.98047,-3.64063 h -2.00196 a 6,6 0 0 0 5.98243,5.64063 6,6 0 0 0 4.59765,-2.1543 z"
         style="fill:#e3f2fd;stroke:none;fill-opacity:1" />
      <path
         id="path88896"
         d="m 378.54127,548.54307 h 3.5039 a 6,6 0 0 0 1.40235,-3.8457 6,6 0 0 0 -0.98243,-3.2793 h -2.73242 a 4,4 0 0 1 1.71485,3.2793 4,4 0 0 1 -2.90625,3.8457 z"
         style="fill:#e3f2fd;stroke:none;fill-opacity:1" />
      <path
         id="path88893"
         d="m 376.44727,536.69774 v 1.99988 a 4,3.9997673 0 0 1 2.28515,0.72066 h 2.73242 a 6,5.9996509 0 0 0 -5.01757,-2.72054 z"
         style="fill:#e3f2fd;stroke:none;stroke-width:1;fill-opacity:1" />
      <path
         id="path88863"
         d="m 368.46481,543.05607 h 2.00196 a 4,3.9997673 0 0 1 -0.0195,-0.35935 4,3.9997673 0 0 1 4,-3.99977 v -1.99988 a 6,5.9996509 0 0 0 -6,5.99965 6,5.9996509 0 0 0 0.0176,0.35935 z"
         style="fill:#e3f2fd;stroke:none;stroke-width:1;fill-opacity:1" />
    </g>
  </g>
</svg>
