<?xml version="1.0" encoding="UTF-8" standalone="no"?>
<svg
   width="54"
   height="54"
   version="1.1"
   viewBox="0 0 14.2875 14.2875"
   id="svg1157"
   sodipodi:docname="icon_first_aid.svg"
   inkscape:version="1.3.2 (091e20e, 2023-11-25, custom)"
   xmlns:inkscape="http://www.inkscape.org/namespaces/inkscape"
   xmlns:sodipodi="http://sodipodi.sourceforge.net/DTD/sodipodi-0.dtd"
   xmlns="http://www.w3.org/2000/svg"
   xmlns:svg="http://www.w3.org/2000/svg"
   xmlns:rdf="http://www.w3.org/1999/02/22-rdf-syntax-ns#"
   xmlns:cc="http://creativecommons.org/ns#"
   xmlns:dc="http://purl.org/dc/elements/1.1/">
  <defs
     id="defs1161" />
  <sodipodi:namedview
     pagecolor="#ffffff"
     bordercolor="#666666"
     borderopacity="1"
     objecttolerance="10"
     gridtolerance="10"
     guidetolerance="10"
     inkscape:pageopacity="0"
     inkscape:pageshadow="2"
     inkscape:window-width="1920"
     inkscape:window-height="1001"
     id="namedview1159"
     showgrid="false"
     inkscape:zoom="4.5461769"
     inkscape:cx="-40.693533"
     inkscape:cy="47.402467"
     inkscape:window-x="-9"
     inkscape:window-y="-9"
     inkscape:window-maximized="1"
     inkscape:current-layer="svg1157"
     units="px"
     inkscape:showpageshadow="2"
     inkscape:pagecheckerboard="0"
     inkscape:deskcolor="#d1d1d1" />
  <metadata
     id="metadata1131">
    <rdf:RDF>
      <cc:Work
         rdf:about="">
        <dc:format>image/svg+xml</dc:format>
        <dc:type
           rdf:resource="http://purl.org/dc/dcmitype/StillImage" />
        <dc:title />
      </cc:Work>
    </rdf:RDF>
  </metadata>
  <path
     id="path9"
     style="fill:#000000;fill-opacity:1;stroke-width:0.25003"
     d="M 7.14375,0.45104291 A 6.8092947,6.6928155 0 0 0 0.33464443,7.14375 6.8092947,6.6928155 0 0 0 7.14375,13.836457 6.8092947,6.6928155 0 0 0 13.952855,7.14375 6.8092947,6.6928155 0 0 0 7.14375,0.45104291 Z m 0,2.05964459 c 0.4784164,0 1.4162939,0.2053955 1.4162939,0.2053955 0,0 -0.3038499,2.0604586 -0.4047391,3.6083609 1.7474647,-0.089052 4.0731632,-0.3573086 4.0731632,-0.3573086 0,0 0.231949,0.8311826 0.231949,1.2551314 0,0.4239491 -0.231949,1.2551317 -0.231949,1.2551317 0,0 -2.3194354,-0.2678953 -4.0661343,-0.3573085 0.1078313,1.5331712 0.3977102,3.4962741 0.3977102,3.4962741 0,0 -0.9293195,0.316913 -1.4162939,0.316913 -0.4869743,0 -1.4162939,-0.316913 -1.4162939,-0.316913 0,0 0.2888717,-1.9568245 0.3971246,-3.4888778 -1.730536,0.095472 -3.9396167,0.3499122 -3.9396167,0.3499122 0,0 -0.3578808,-0.8235987 -0.3578808,-1.2551317 0,-0.4315327 0.3578808,-1.2551314 0.3578808,-1.2551314 0,0 2.215089,0.2553205 3.9466455,0.350481 C 6.0302663,4.7704924 5.7274561,2.716083 5.7274561,2.716083 c 0,0 0.9378777,-0.2053955 1.4162939,-0.2053955 z" />
  <path
     id="path6"
     style="fill:#cc3c3c;fill-opacity:1;stroke-width:0.223817"
     d="M 7.14375 1.0650513 A 6.0075521 6.0787973 0 0 0 1.1363647 7.14375 A 6.0075521 6.0787973 0 0 0 7.14375 13.222449 A 6.0075521 6.0787973 0 0 0 13.151135 7.14375 A 6.0075521 6.0787973 0 0 0 7.14375 1.0650513 z M 7.14375 2.9357381 C 7.5658365 2.9357381 8.3932861 3.12229 8.3932861 3.12229 C 8.3932861 3.12229 8.1252122 4.9937162 8.036202 6.3996094 C 9.577916 6.3187267 11.629781 6.0750814 11.629781 6.0750814 C 11.629781 6.0750814 11.83442 6.8300088 11.83442 7.2150635 C 11.83442 7.6001182 11.629781 8.3550456 11.629781 8.3550456 C 11.629781 8.3550456 9.583442 8.1117278 8.0424032 8.0305176 C 8.1375384 9.4230313 8.3932861 11.206034 8.3932861 11.206034 C 8.3932861 11.206034 7.5733869 11.493872 7.14375 11.493872 C 6.7141132 11.493872 5.8942139 11.206034 5.8942139 11.206034 C 5.8942139 11.206034 6.1490731 9.4287337 6.2445801 8.0372355 C 4.7178015 8.1239488 2.7688232 8.3550456 2.7688232 8.3550456 C 2.7688232 8.3550456 2.4530802 7.6070062 2.4530802 7.2150635 C 2.4530802 6.8231208 2.7688232 6.0750814 2.7688232 6.0750814 C 2.7688232 6.0750814 4.7231024 6.3069782 6.2507813 6.3934082 C 6.1613704 4.988222 5.8942139 3.12229 5.8942139 3.12229 C 5.8942139 3.12229 6.7216637 2.9357381 7.14375 2.9357381 z " />
  <path
     id="path8"
     style="fill:#cc3c3c;fill-opacity:1;stroke-width:0.223817"
     d="M 7.14375 1.0650513 A 6.0075521 6.0787973 0 0 0 1.1363647 7.14375 A 6.0075521 6.0787973 0 0 0 7.14375 13.222449 A 6.0075521 6.0787973 0 0 0 13.151135 7.14375 A 6.0075521 6.0787973 0 0 0 7.14375 1.0650513 z M 7.14375 2.9357381 C 7.5658365 2.9357381 8.3932861 3.12229 8.3932861 3.12229 C 8.3932861 3.12229 8.1252122 4.9937162 8.036202 6.3996094 C 9.577916 6.3187267 11.629781 6.0750814 11.629781 6.0750814 C 11.629781 6.0750814 11.83442 6.8300088 11.83442 7.2150635 C 11.83442 7.6001182 11.629781 8.3550456 11.629781 8.3550456 C 11.629781 8.3550456 9.583442 8.1117278 8.0424032 8.0305176 C 8.1375384 9.4230313 8.3932861 11.206034 8.3932861 11.206034 C 8.3932861 11.206034 7.5733869 11.493872 7.14375 11.493872 C 6.7141132 11.493872 5.8942139 11.206034 5.8942139 11.206034 C 5.8942139 11.206034 6.1490731 9.4287337 6.2445801 8.0372355 C 4.7178015 8.1239488 2.7688232 8.3550456 2.7688232 8.3550456 C 2.7688232 8.3550456 2.4530802 7.6070062 2.4530802 7.2150635 C 2.4530802 6.8231208 2.7688232 6.0750814 2.7688232 6.0750814 C 2.7688232 6.0750814 4.7231024 6.3069782 6.2507813 6.3934082 C 6.1613704 4.988222 5.8942139 3.12229 5.8942139 3.12229 C 5.8942139 3.12229 6.7216637 2.9357381 7.14375 2.9357381 z " />
</svg>
